<?xml version="1.0" encoding="UTF-8"?>
<svg version="1.1" xmlns="http://www.w3.org/2000/svg" width="912" height="1034">
  <path
    d="M0 0 C300.96 0 601.92 0 912 0 C912 341.22 912 682.44 912 1034 C611.04 1034 310.08 1034 0 1034 C0 692.78 0 351.56 0 0 Z "
    fill="#010101"
    transform="translate(0,0)"
  />
  <path
    d="M0 0 C2.41382073 1.34066722 4.70792987 2.78810126 7.00878906 4.31445312 C8.77665141 5.43091959 10.54489074 6.54678932 12.31347656 7.66210938 C13.20260742 8.2333252 14.09173828 8.80454102 15.0078125 9.39306641 C18.99844273 11.93303057 23.06624382 14.33791542 27.13378906 16.75195312 C35.92905236 22.01817655 44.68914429 27.34219319 53.44851685 32.66778564 C61.94740433 37.83467969 70.46093691 42.97610219 78.99926758 48.07763672 C82.53928526 50.19546877 86.06990741 52.32462697 89.57128906 54.50585938 C90.16949463 54.87831787 90.7677002 55.25077637 91.3840332 55.63452148 C92.92692569 56.59919208 94.46610141 57.56980073 96.00488281 58.54101562 C98.53178525 60.09790917 98.53178525 60.09790917 101.03442383 60.9855957 C103.58752336 62.04525071 105.5945025 63.26735286 107.85253906 64.84960938 C112.4775637 68.00260163 117.25150458 70.77020435 122.13378906 73.50195312 C131.01973162 78.52864068 139.79451627 83.71990987 148.53759766 88.99047852 C158.732723 95.13445256 168.96725262 101.21078044 179.20727539 107.27954102 C186.31336289 111.49219705 193.40779941 115.72334732 200.48910522 119.97753906 C204.94213047 122.65198057 209.40405278 125.31002989 213.88378906 127.93945312 C214.58882568 128.35396729 215.2938623 128.76848145 216.02026367 129.19555664 C220.32424171 131.72187668 224.64078036 134.22540601 228.96533203 136.71630859 C246.34259861 146.73039108 263.57040738 157.00733929 280.75878906 167.34179688 C282.4014978 168.32937988 282.4014978 168.32937988 284.07739258 169.33691406 C286.16742872 170.59500964 288.25649025 171.85472599 290.34448242 173.11621094 C295.19081748 176.03631987 300.05789507 178.87846362 305.02685547 181.58422852 C312.02913678 185.40928423 317.55639508 189.41240495 320.63378906 197.06445312 C320.88793939 199.85807097 320.88793939 199.85807097 320.89385128 203.15096474 C320.90091687 204.40678435 320.90798246 205.66260396 320.91526216 206.95647871 C320.91301072 208.35271017 320.91056422 209.74894131 320.90794373 211.14517212 C320.91239513 212.6264283 320.91770886 214.1076821 320.92381245 215.58893239 C320.93801504 219.66517373 320.93965531 223.7413389 320.93921554 227.81760144 C320.9408618 232.21178091 320.95392485 236.60592882 320.96540833 241.00009155 C320.98827383 250.61178938 320.99618082 260.22346515 321.00123477 269.83518648 C321.00449044 275.83682745 321.0110122 281.838462 321.01823616 287.84009933 C321.03780529 304.45652116 321.05420727 321.07293702 321.05711269 337.68937111 C321.05730026 338.75305505 321.05748783 339.816739 321.05768109 340.91265579 C321.05804734 343.06902464 321.05841104 345.22539349 321.0587722 347.38176234 C321.05895501 348.4521919 321.05913782 349.52262146 321.05932617 350.62548828 C321.059597 352.23309259 321.059597 352.23309259 321.05987329 353.87317376 C321.06341417 371.23530957 321.09042976 388.59732129 321.12782406 405.95941408 C321.16590807 423.78441126 321.18527018 441.60934688 321.18557221 459.43438566 C321.18615681 469.44261291 321.19465046 479.45069221 321.22356987 489.45888138 C321.24808516 497.98218531 321.25536574 506.50528733 321.24032234 515.02861698 C321.23315365 519.37625347 321.23400888 523.72349129 321.25673294 528.07108307 C321.2773564 532.05502769 321.27469169 536.038268 321.2538581 540.02220528 C321.25036955 541.4596753 321.25524636 542.89719649 321.26956253 544.33459945 C321.34873703 552.8352566 320.867074 560.05702124 315.63378906 567.06445312 C312.16120213 570.06445312 312.16120213 570.06445312 309.63378906 570.06445312 C309.63378906 570.72445312 309.63378906 571.38445313 309.63378906 572.06445312 C309.03131348 572.37036377 308.42883789 572.67627441 307.80810547 572.99145508 C296.58672574 578.71075955 285.48888116 584.50255286 274.83544922 591.23364258 C270.21248244 594.14939844 265.4914964 596.79546275 260.68164062 599.390625 C254.84500159 602.59600767 249.12164029 605.99902533 243.38378906 609.37695312 C242.08101026 610.1423155 240.7781942 610.90761448 239.4753418 611.67285156 C232.06505523 616.02851752 224.67512042 620.41612752 217.31347656 624.85351562 C205.69651578 631.84706888 194.00610432 638.71621219 182.24267578 645.46020508 C170.78185928 652.03161541 159.44405329 658.7729754 148.16870117 665.6550293 C136.84293642 672.56561394 125.43156576 679.32778325 114.00585938 686.07177734 C110.59539528 688.08714137 107.18828432 690.10805836 103.78222656 692.13085938 C93.08845584 698.48092918 82.38342522 704.80934217 71.63378906 711.06445312 C60.75556819 717.39491674 49.91517207 723.78681331 39.10253906 730.22851562 C34.99585077 732.67326326 30.87338762 735.08520715 26.72753906 737.46289062 C25.8197168 737.98995605 24.91189453 738.51702148 23.9765625 739.06005859 C22.31988608 740.02130531 20.65699056 740.97196357 18.98632812 741.90869141 C14.11137925 744.76001653 10.66961534 747.90838435 7.12597656 752.3125 C3.67726591 756.36157521 -0.26262407 757.29680868 -5.36621094 757.75195312 C-12.42902253 757.52381385 -17.66060557 754.00849172 -23.43554688 750.30029297 C-26.06335764 748.61820166 -28.72885073 747.00096467 -31.39428711 745.37939453 C-32.85462014 744.4901516 -34.31307079 743.59781115 -35.76977539 742.70263672 C-49.49459602 734.27177765 -63.35166594 726.00485488 -77.36621094 718.06445312 C-87.51427797 712.3138818 -97.50964458 706.29890593 -107.53613281 700.33984375 C-111.47269165 698.00056781 -115.41156494 695.6652049 -119.35058594 693.33007812 C-122.06425467 691.72091731 -124.77777111 690.1114999 -127.49121094 688.50195312 C-128.16839172 688.10030945 -128.84557251 687.69866577 -129.54327393 687.28485107 C-137.40533307 682.62056822 -145.25291621 677.93404542 -153.07910156 673.2097168 C-164.1703413 666.51663507 -175.36253921 660.02769315 -186.62231445 653.62451172 C-194.24555175 649.28791948 -201.80906265 644.87461686 -209.30175781 640.31689453 C-213.79301781 637.59218264 -218.29956365 634.89278629 -222.80371094 632.18945312 C-223.84495117 631.56425781 -224.88619141 630.9390625 -225.95898438 630.29492188 C-236.41187173 624.02505549 -246.89279991 617.80259788 -257.37768555 611.58642578 C-258.02705078 611.20137375 -258.67641602 610.81632172 -259.34545898 610.41960144 C-260.61644895 609.66596466 -261.8875249 608.91247288 -263.15869141 608.15913391 C-266.66418213 606.08010637 -270.15941694 603.98508905 -273.64746094 601.87695312 C-277.77327738 599.3967009 -281.95219097 597.02371223 -286.1550293 594.67675781 C-291.24166249 591.83458305 -296.30428775 588.95034343 -301.36621094 586.06445312 C-302.47834961 585.43200684 -303.59048828 584.79956055 -304.73632812 584.14794922 C-308.10324566 582.2219951 -311.45489255 580.27167737 -314.80371094 578.31445312 C-315.83890869 577.72543213 -316.87410645 577.13641113 -317.94067383 576.52954102 C-324.33009861 572.75694193 -332.4677342 567.77537672 -334.94789475 560.31465459 C-335.47220726 557.49427896 -335.49572582 554.82685794 -335.50043201 551.95673752 C-335.50488986 550.69620111 -335.5093477 549.43566471 -335.51394063 548.13693023 C-335.51385134 546.73539081 -335.51366149 545.3338514 -335.51338196 543.93231201 C-335.51668148 542.44550742 -335.52040724 540.95870373 -335.52452344 539.47190118 C-335.53454127 535.38041398 -335.53825987 531.28894145 -335.54091275 527.19744372 C-335.54481636 522.78695219 -335.55439457 518.37647228 -335.56312561 513.96598816 C-335.58288694 503.31272627 -335.59295517 492.65946343 -335.6018534 482.0061878 C-335.60623627 476.99037385 -335.61160303 471.97456097 -335.61684227 466.95874786 C-335.63385315 450.28742059 -335.64834811 433.61609398 -335.65559101 416.94475937 C-335.65750092 412.6186091 -335.65942126 408.29245884 -335.66137695 403.96630859 C-335.66186069 402.89105715 -335.66234443 401.81580571 -335.66284283 400.70797089 C-335.67114614 383.2830748 -335.69648876 365.8582473 -335.72895763 348.43338117 C-335.76201438 330.54737825 -335.78003846 312.6614102 -335.78323525 294.77537656 C-335.78540148 284.73146133 -335.79416678 274.68764616 -335.81969643 264.64376068 C-335.84138438 256.0915127 -335.84946318 247.53938908 -335.83972964 238.98711672 C-335.8351796 234.62357644 -335.83711202 230.26029285 -335.85649109 225.89678764 C-335.87408518 221.90070202 -335.87315581 217.90506108 -335.8575938 213.90897098 C-335.85521202 212.46480702 -335.85957088 211.02061256 -335.87142245 209.57649526 C-335.93845399 200.86796581 -335.8626644 193.83928812 -329.60351562 187.19262695 C-328.70487793 186.58197388 -328.70487793 186.58197388 -327.78808594 185.95898438 C-326.73911133 185.240896 -326.73911133 185.240896 -325.66894531 184.50830078 C-321.37591193 181.81650695 -317.01982641 179.25832262 -312.61621094 176.75195312 C-303.56248087 171.53741419 -294.59284018 166.2007607 -285.67871094 160.75195312 C-274.74329803 154.0738965 -263.72603916 147.54823016 -252.66040039 141.08862305 C-245.86940596 137.12349034 -239.09909286 133.12774982 -232.36621094 129.06445312 C-223.76858964 123.878629 -215.11157439 118.79688556 -206.44519043 113.7272644 C-196.18079872 107.72242358 -185.94103934 101.67737343 -175.71459961 95.6081543 C-169.52315303 91.93395236 -163.32580481 88.27039623 -157.11621094 84.62695312 C-151.66973896 81.43084314 -146.24977648 78.19409597 -140.8425293 74.93188477 C-135.38821094 71.65373875 -129.89385244 68.44516632 -124.3984375 65.23657227 C-112.74676702 58.43334228 -101.15605913 51.54510683 -89.64212036 44.51119995 C-79.91087101 38.56926487 -70.0972853 32.77927893 -60.24694824 27.037323 C-52.69112708 22.6305949 -45.19030201 18.15998622 -37.80200195 13.47705078 C-32.93655188 10.39843106 -28.01101824 7.43027403 -23.05371094 4.50195312 C-22.32893555 4.07148682 -21.60416016 3.64102051 -20.85742188 3.19750977 C-14.18044197 -0.72453737 -7.56753372 -2.99203356 0 0 Z "
    fill="#020202"
    transform="translate(481.3662109375,160.935546875)"
  />
  <path
    d="M0 0 C2.41378042 1.34064484 4.70814934 2.78787354 7.00878906 4.31445312 C8.74792993 5.41411153 10.4875275 6.51304795 12.22753906 7.61132812 C13.113125 8.18044922 13.99871094 8.74957031 14.91113281 9.3359375 C19.38525395 12.17639461 23.95058053 14.86185092 28.50878906 17.56445312 C33.63549635 20.61666027 38.70303968 23.70329921 43.63378906 27.06445312 C41.07815829 28.34226851 40.3445549 27.77349686 37.63378906 27.06445312 C25.11145197 26.20429259 15.64288409 28.26935147 5.63378906 36.06445312 C0.76491706 40.4932011 -2.3052738 45.37291459 -5.05688477 51.31201172 C-9.43370427 60.5128812 -14.74121645 69.29266042 -19.80371094 78.12695312 C-20.50744273 79.35658682 -21.21113662 80.58624222 -21.91479492 81.81591797 C-28.41816849 93.17533906 -34.95854733 104.51338467 -41.50732422 115.84667969 C-44.62945699 121.25115958 -47.74762298 126.65792725 -50.86621094 132.06445312 C-52.11619215 134.23113063 -53.36619215 136.3977973 -54.61621094 138.56445312 C-55.23496094 139.63695312 -55.85371094 140.70945312 -56.49121094 141.81445312 C-62.11621094 151.56445312 -62.11621094 151.56445312 -63.99194336 154.81567383 C-65.23955834 156.97823896 -66.4871171 159.14083652 -67.73461914 161.3034668 C-70.89564543 166.78315684 -74.05770403 172.2622467 -77.22167969 177.74023438 C-82.97929355 187.71093264 -88.72832922 197.68590748 -94.42871094 207.68945312 C-102.14694141 221.22648049 -110.03161928 234.66661028 -117.90917969 248.11132812 C-124.15992382 258.78964659 -130.33686172 269.50353024 -136.40600586 280.28613281 C-142.34240329 290.82263451 -148.39878511 301.28914605 -154.45458984 311.75732422 C-156.35903519 315.052039 -158.25977597 318.34886085 -160.15917969 321.64648438 C-167.00515314 333.53076176 -173.87749387 345.3989069 -180.80004883 357.23876953 C-181.85854329 359.04950556 -182.91266589 360.86280769 -183.96142578 362.67919922 C-184.83634797 364.1647727 -185.73866531 365.63495972 -186.68115234 367.07861328 C-188.385879 369.74539175 -189.35124413 371.66810987 -189.47167969 374.85742188 C-187.79859397 379.71114403 -185.2711237 383.95947278 -182.67871094 388.37695312 C-181.48788885 390.44294573 -180.29781026 392.50936704 -179.10839844 394.57617188 C-178.49061523 395.64399902 -177.87283203 396.71182617 -177.23632812 397.81201172 C-174.20914575 403.07677982 -171.25955558 408.38441831 -168.30371094 413.68945312 C-162.06239957 424.85562323 -155.73207032 435.96893919 -149.36621094 447.06445312 C-142.39468417 459.2156283 -135.48206244 471.39690531 -128.64794922 483.62597656 C-124.74045467 490.61675369 -120.8122994 497.59539406 -116.86621094 504.56445312 C-112.32056398 512.59237304 -107.8041191 520.63609116 -103.30371094 528.68945312 C-98.55020494 537.19352759 -93.74960631 545.66845129 -88.90063477 554.1184082 C-85.0475248 560.84370936 -81.26442203 567.60657034 -77.49121094 574.37695312 C-72.83629461 582.72638005 -68.08582039 591.01123296 -63.24121094 599.25195312 C-57.66320742 608.74581604 -52.33068749 618.35227382 -47.09277344 628.03710938 C-43.6757627 634.35466118 -40.15551681 640.61157767 -36.61474609 646.86035156 C-35.2005131 649.35696781 -33.7890937 651.85516344 -32.37792969 654.35351562 C-31.84643311 655.29428955 -31.31493652 656.23506348 -30.76733398 657.2043457 C-29.66845192 659.14944658 -28.56965605 661.09459616 -27.47094727 663.03979492 C-24.54790343 668.21258519 -21.61819124 673.38145185 -18.67871094 678.54492188 C-18.08219727 679.59478271 -17.48568359 680.64464355 -16.87109375 681.72631836 C-15.72156138 683.74919467 -14.56994531 685.77088863 -13.41601562 687.79125977 C-12.64112793 689.1562561 -12.64112793 689.1562561 -11.85058594 690.54882812 C-11.39393555 691.35030273 -10.93728516 692.15177734 -10.46679688 692.97753906 C-9.36621094 695.06445313 -9.36621094 695.06445313 -8.36621094 698.06445312 C-5.17015269 695.33635356 -3.40743582 691.82275534 -1.42871094 688.18945312 C-0.62363323 686.73321946 0.18240489 685.27751646 0.98925781 683.82226562 C1.41770996 683.04786133 1.84616211 682.27345703 2.28759766 681.47558594 C4.12526329 678.18418481 6.00886534 674.92006185 7.89160156 671.65429688 C13.3170867 662.23781351 18.55121946 652.73162354 23.70043945 643.16162109 C28.53873577 634.18951558 33.5437569 625.31765083 38.57910156 616.45507812 C41.31712033 611.63411798 44.01455269 606.79188717 46.69628906 601.93945312 C50.20576582 595.59602604 53.77752227 589.29083 57.38378906 583.00195312 C62.43044078 574.2009058 67.40253624 565.35992153 72.3515625 556.50366211 C76.7884798 548.56606335 81.25623304 540.64641165 85.73681641 532.73339844 C89.74590149 525.64796906 93.72488632 518.54605921 97.69628906 511.43945312 C102.47323401 502.89469367 107.29449075 494.37714777 112.16088867 485.88305664 C119.72197287 472.68226064 127.22518273 459.44868007 134.57128906 446.12695312 C138.45947269 439.0811707 142.49850059 432.1299235 146.57128906 425.18945312 C150.98874154 417.66110181 155.32338131 410.09939958 159.50878906 402.43945312 C159.95351563 401.62621582 160.39824219 400.81297852 160.85644531 399.97509766 C161.71061926 398.41220229 162.56462951 396.84921745 163.41845703 395.28613281 C165.28718492 391.87001715 167.16662351 388.46066977 169.07128906 385.06445312 C169.668125 383.99195313 170.26496094 382.91945313 170.87988281 381.81445312 C172.56753617 379.16833295 174.32485547 377.17547813 176.63378906 375.06445312 C182.54083852 385.03586627 188.36211078 395.05187456 194.09960938 405.12182617 C197.42128301 410.94959339 200.76655631 416.76290059 204.13378906 422.56445312 C207.96953314 429.17628248 211.78076749 435.8015914 215.57128906 442.43945312 C216.07088135 443.3141626 216.57047363 444.18887207 217.08520508 445.09008789 C219.59510773 449.48675887 222.10107945 453.88562947 224.60253906 458.28710938 C230.33648381 468.36466583 236.14753494 478.38980824 242.09448242 488.34350586 C245.21508061 493.58529498 248.18667139 498.88648553 251.08886719 504.25195312 C253.7755 509.14291551 256.61775197 513.94214742 259.44628906 518.75195312 C263.60475373 525.85789798 267.76186792 532.96382941 271.82128906 540.12695312 C272.17102783 540.73821045 272.5207666 541.34946777 272.88110352 541.97924805 C277.06884146 549.4136008 279.19695507 555.20577272 279.13378906 563.68945312 C279.12879395 564.56956055 279.12379883 565.44966797 279.11865234 566.35644531 C278.82665206 577.3638491 275.28006422 586.95855478 267.63378906 595.06445312 C264.46683803 597.44407572 261.10087175 599.34470626 257.63378906 601.25195312 C255.65048242 602.38305382 253.66741602 603.51457585 251.68457031 604.64648438 C250.67604004 605.21447754 249.66750977 605.7824707 248.62841797 606.36767578 C243.98920164 608.99628767 239.40644756 611.71800705 234.82128906 614.43945312 C233.46922363 615.23766479 233.46922363 615.23766479 232.08984375 616.05200195 C226.21374752 619.52250014 220.36057067 623.02958137 214.515625 626.55224609 C205.08658222 632.23407496 195.61992333 637.83576463 186.07128906 643.31445312 C162.89511003 656.61379675 139.97835024 670.37211317 117.11035156 684.19335938 C104.78456209 691.62550017 92.34622196 698.86703795 79.92480469 706.13769531 C67.53234714 713.39298277 55.15741124 720.67869675 42.81787109 728.02368164 C37.46440074 731.20936557 32.1042896 734.37920294 26.70019531 737.47851562 C25.7963208 738.0033252 24.89244629 738.52813477 23.96118164 739.06884766 C22.31021783 740.02686644 20.65298209 740.97420549 18.98803711 741.90771484 C14.11238408 744.75940184 10.67012609 747.90774958 7.12597656 752.3125 C3.67726591 756.36157521 -0.26262407 757.29680868 -5.36621094 757.75195312 C-12.42902253 757.52381385 -17.66060557 754.00849172 -23.43554688 750.30029297 C-26.06335764 748.61820166 -28.72885073 747.00096467 -31.39428711 745.37939453 C-32.85462014 744.4901516 -34.31307079 743.59781115 -35.76977539 742.70263672 C-49.49459602 734.27177765 -63.35166594 726.00485488 -77.36621094 718.06445312 C-87.51427797 712.3138818 -97.50964458 706.29890593 -107.53613281 700.33984375 C-111.47269165 698.00056781 -115.41156494 695.6652049 -119.35058594 693.33007812 C-122.06425467 691.72091731 -124.77777111 690.1114999 -127.49121094 688.50195312 C-128.16839172 688.10030945 -128.84557251 687.69866577 -129.54327393 687.28485107 C-137.40533307 682.62056822 -145.25291621 677.93404542 -153.07910156 673.2097168 C-164.1703413 666.51663507 -175.36253921 660.02769315 -186.62231445 653.62451172 C-194.24555175 649.28791948 -201.80906265 644.87461686 -209.30175781 640.31689453 C-213.79301781 637.59218264 -218.29956365 634.89278629 -222.80371094 632.18945312 C-223.84495117 631.56425781 -224.88619141 630.9390625 -225.95898438 630.29492188 C-236.41187173 624.02505549 -246.89279991 617.80259788 -257.37768555 611.58642578 C-258.02705078 611.20137375 -258.67641602 610.81632172 -259.34545898 610.41960144 C-260.61644895 609.66596466 -261.8875249 608.91247288 -263.15869141 608.15913391 C-266.66418213 606.08010637 -270.15941694 603.98508905 -273.64746094 601.87695312 C-277.77327738 599.3967009 -281.95219097 597.02371223 -286.1550293 594.67675781 C-291.24166249 591.83458305 -296.30428775 588.95034343 -301.36621094 586.06445312 C-302.47834961 585.43200684 -303.59048828 584.79956055 -304.73632812 584.14794922 C-308.10324566 582.2219951 -311.45489255 580.27167737 -314.80371094 578.31445312 C-315.83890869 577.72543213 -316.87410645 577.13641113 -317.94067383 576.52954102 C-324.33009861 572.75694193 -332.4677342 567.77537672 -334.94789475 560.31465459 C-335.47220726 557.49427896 -335.49572582 554.82685794 -335.50043201 551.95673752 C-335.50488986 550.69620111 -335.5093477 549.43566471 -335.51394063 548.13693023 C-335.51385134 546.73539081 -335.51366149 545.3338514 -335.51338196 543.93231201 C-335.51668148 542.44550742 -335.52040724 540.95870373 -335.52452344 539.47190118 C-335.53454127 535.38041398 -335.53825987 531.28894145 -335.54091275 527.19744372 C-335.54481636 522.78695219 -335.55439457 518.37647228 -335.56312561 513.96598816 C-335.58288694 503.31272627 -335.59295517 492.65946343 -335.6018534 482.0061878 C-335.60623627 476.99037385 -335.61160303 471.97456097 -335.61684227 466.95874786 C-335.63385315 450.28742059 -335.64834811 433.61609398 -335.65559101 416.94475937 C-335.65750092 412.6186091 -335.65942126 408.29245884 -335.66137695 403.96630859 C-335.66186069 402.89105715 -335.66234443 401.81580571 -335.66284283 400.70797089 C-335.67114614 383.2830748 -335.69648876 365.8582473 -335.72895763 348.43338117 C-335.76201438 330.54737825 -335.78003846 312.6614102 -335.78323525 294.77537656 C-335.78540148 284.73146133 -335.79416678 274.68764616 -335.81969643 264.64376068 C-335.84138438 256.0915127 -335.84946318 247.53938908 -335.83972964 238.98711672 C-335.8351796 234.62357644 -335.83711202 230.26029285 -335.85649109 225.89678764 C-335.87408518 221.90070202 -335.87315581 217.90506108 -335.8575938 213.90897098 C-335.85521202 212.46480702 -335.85957088 211.02061256 -335.87142245 209.57649526 C-335.93845399 200.86796581 -335.8626644 193.83928812 -329.60351562 187.19262695 C-328.70487793 186.58197388 -328.70487793 186.58197388 -327.78808594 185.95898438 C-326.73911133 185.240896 -326.73911133 185.240896 -325.66894531 184.50830078 C-321.37591193 181.81650695 -317.01982641 179.25832262 -312.61621094 176.75195312 C-303.56248087 171.53741419 -294.59284018 166.2007607 -285.67871094 160.75195312 C-274.74329803 154.0738965 -263.72603916 147.54823016 -252.66040039 141.08862305 C-245.86940596 137.12349034 -239.09909286 133.12774982 -232.36621094 129.06445312 C-223.76858964 123.878629 -215.11157439 118.79688556 -206.44519043 113.7272644 C-196.18079872 107.72242358 -185.94103934 101.67737343 -175.71459961 95.6081543 C-169.52315303 91.93395236 -163.32580481 88.27039623 -157.11621094 84.62695312 C-151.66973896 81.43084314 -146.24977648 78.19409597 -140.8425293 74.93188477 C-135.38821094 71.65373875 -129.89385244 68.44516632 -124.3984375 65.23657227 C-112.74676702 58.43334228 -101.15605913 51.54510683 -89.64212036 44.51119995 C-79.91087101 38.56926487 -70.0972853 32.77927893 -60.24694824 27.037323 C-52.69112708 22.6305949 -45.19030201 18.15998622 -37.80200195 13.47705078 C-32.93655188 10.39843106 -28.01101824 7.43027403 -23.05371094 4.50195312 C-22.32893555 4.07148682 -21.60416016 3.64102051 -20.85742188 3.19750977 C-14.18044197 -0.72453737 -7.56753372 -2.99203356 0 0 Z "
    fill="#336987"
    transform="translate(481.3662109375,160.935546875)"
  />
  <path
    d="M0 0 C2.41378042 1.34064484 4.70814934 2.78787354 7.00878906 4.31445312 C8.74792993 5.41411153 10.4875275 6.51304795 12.22753906 7.61132812 C13.113125 8.18044922 13.99871094 8.74957031 14.91113281 9.3359375 C19.38525395 12.17639461 23.95058053 14.86185092 28.50878906 17.56445312 C33.63549635 20.61666027 38.70303968 23.70329921 43.63378906 27.06445312 C41.07815829 28.34226851 40.3445549 27.77349686 37.63378906 27.06445312 C25.11145197 26.20429259 15.64288409 28.26935147 5.63378906 36.06445312 C0.76491706 40.4932011 -2.3052738 45.37291459 -5.05688477 51.31201172 C-9.43370427 60.5128812 -14.74121645 69.29266042 -19.80371094 78.12695312 C-20.50744273 79.35658682 -21.21113662 80.58624222 -21.91479492 81.81591797 C-28.41816849 93.17533906 -34.95854733 104.51338467 -41.50732422 115.84667969 C-44.62945699 121.25115958 -47.74762298 126.65792725 -50.86621094 132.06445312 C-52.11619215 134.23113063 -53.36619215 136.3977973 -54.61621094 138.56445312 C-55.23496094 139.63695312 -55.85371094 140.70945312 -56.49121094 141.81445312 C-62.11621094 151.56445312 -62.11621094 151.56445312 -63.99194336 154.81567383 C-65.23955834 156.97823896 -66.4871171 159.14083652 -67.73461914 161.3034668 C-70.89564543 166.78315684 -74.05770403 172.2622467 -77.22167969 177.74023438 C-82.97929355 187.71093264 -88.72832922 197.68590748 -94.42871094 207.68945312 C-102.14694141 221.22648049 -110.03161928 234.66661028 -117.90917969 248.11132812 C-124.15992382 258.78964659 -130.33686172 269.50353024 -136.40600586 280.28613281 C-142.34240329 290.82263451 -148.39878511 301.28914605 -154.45458984 311.75732422 C-156.35903519 315.052039 -158.25977597 318.34886085 -160.15917969 321.64648438 C-167.45116304 334.30520917 -174.77749298 346.943151 -182.14746094 359.55664062 C-182.66880615 360.44996094 -183.19015137 361.34328125 -183.72729492 362.26367188 C-184.89448988 364.25831816 -186.06638443 366.25021758 -187.24145508 368.24023438 C-187.86141357 369.29339844 -188.48137207 370.3465625 -189.12011719 371.43164062 C-189.68287354 372.38409668 -190.24562988 373.33655273 -190.82543945 374.31787109 C-192.95656269 378.11681523 -194.72683117 382.03218985 -196.36621094 386.06445312 C-197.02621094 386.06445312 -197.68621094 386.06445312 -198.36621094 386.06445312 C-198.75486328 387.09892578 -198.75486328 387.09892578 -199.15136719 388.15429688 C-200.51894741 391.43033309 -202.11985002 394.50185211 -203.80371094 397.62695312 C-204.69896484 399.29951172 -204.69896484 399.29951172 -205.61230469 401.00585938 C-207.36621094 404.06445312 -207.36621094 404.06445312 -208.96386719 406.15429688 C-210.57794539 408.35286022 -211.38371906 410.5263491 -212.36621094 413.06445312 C-213.24890657 414.64639258 -214.16735581 416.2087882 -215.11621094 417.75195312 C-215.90318359 419.04359375 -215.90318359 419.04359375 -216.70605469 420.36132812 C-217.25390625 421.25335937 -217.80175781 422.14539063 -218.36621094 423.06445312 C-219.47352736 424.87503055 -220.57781511 426.68746459 -221.67871094 428.50195312 C-222.41541016 429.70658203 -222.41541016 429.70658203 -223.16699219 430.93554688 C-224.49610102 433.1373154 -224.49610102 433.1373154 -225.36621094 436.06445312 C-226.02621094 436.06445312 -226.68621094 436.06445312 -227.36621094 436.06445312 C-227.42808594 436.72445313 -227.48996094 437.38445312 -227.55371094 438.06445312 C-228.48570685 441.50566879 -230.01633645 443.8372757 -231.95605469 446.79492188 C-234.39783641 450.72477002 -236.36060119 454.89961246 -238.36621094 459.06445312 C-239.02621094 459.06445312 -239.68621094 459.06445312 -240.36621094 459.06445312 C-240.63820313 459.76957031 -240.91019531 460.4746875 -241.19042969 461.20117188 C-244.19010936 468.50603965 -247.81950336 475.57147059 -252.19042969 482.15039062 C-253.47933784 484.18437112 -253.47933784 484.18437112 -254.79199219 486.93554688 C-256.33409065 490.00061106 -258.03753965 492.85009975 -259.86621094 495.75195312 C-263.76847194 502.00810515 -267.47260241 508.36997106 -271.1484375 514.76123047 C-273.42228131 518.71256444 -275.70781927 522.65461815 -278.04589844 526.56835938 C-292.63539571 550.93144048 -292.63539571 550.93144048 -291.99121094 578.81445312 C-291.0896543 582.14748068 -290.30437749 584.1572033 -288.36621094 587.06445312 C-288.36621094 588.38445313 -288.36621094 589.70445312 -288.36621094 591.06445312 C-292.73673449 590.535658 -295.74729999 589.54859104 -299.49121094 587.25195312 C-300.51988281 586.62417969 -301.54855469 585.99640625 -302.60839844 585.34960938 C-303.19073242 584.99141113 -303.77306641 584.63321289 -304.37304688 584.26416016 C-306.66401782 582.88519994 -308.98535614 581.56673883 -311.31152344 580.24804688 C-332.38776082 568.17521281 -332.38776082 568.17521281 -334.92935532 560.3250916 C-335.47557207 557.49853161 -335.4957091 554.83705524 -335.50043201 551.95673752 C-335.50488986 550.69620111 -335.5093477 549.43566471 -335.51394063 548.13693023 C-335.51385134 546.73539081 -335.51366149 545.3338514 -335.51338196 543.93231201 C-335.51668148 542.44550742 -335.52040724 540.95870373 -335.52452344 539.47190118 C-335.53454127 535.38041398 -335.53825987 531.28894145 -335.54091275 527.19744372 C-335.54481636 522.78695219 -335.55439457 518.37647228 -335.56312561 513.96598816 C-335.58288694 503.31272627 -335.59295517 492.65946343 -335.6018534 482.0061878 C-335.60623627 476.99037385 -335.61160303 471.97456097 -335.61684227 466.95874786 C-335.63385315 450.28742059 -335.64834811 433.61609398 -335.65559101 416.94475937 C-335.65750092 412.6186091 -335.65942126 408.29245884 -335.66137695 403.96630859 C-335.66186069 402.89105715 -335.66234443 401.81580571 -335.66284283 400.70797089 C-335.67114614 383.2830748 -335.69648876 365.8582473 -335.72895763 348.43338117 C-335.76201438 330.54737825 -335.78003846 312.6614102 -335.78323525 294.77537656 C-335.78540148 284.73146133 -335.79416678 274.68764616 -335.81969643 264.64376068 C-335.84138438 256.0915127 -335.84946318 247.53938908 -335.83972964 238.98711672 C-335.8351796 234.62357644 -335.83711202 230.26029285 -335.85649109 225.89678764 C-335.87408518 221.90070202 -335.87315581 217.90506108 -335.8575938 213.90897098 C-335.85521202 212.46480702 -335.85957088 211.02061256 -335.87142245 209.57649526 C-335.93845399 200.86796581 -335.8626644 193.83928812 -329.60351562 187.19262695 C-328.70487793 186.58197388 -328.70487793 186.58197388 -327.78808594 185.95898438 C-326.73911133 185.240896 -326.73911133 185.240896 -325.66894531 184.50830078 C-321.37591193 181.81650695 -317.01982641 179.25832262 -312.61621094 176.75195312 C-303.56248087 171.53741419 -294.59284018 166.2007607 -285.67871094 160.75195312 C-274.74329803 154.0738965 -263.72603916 147.54823016 -252.66040039 141.08862305 C-245.86940596 137.12349034 -239.09909286 133.12774982 -232.36621094 129.06445312 C-223.76858964 123.878629 -215.11157439 118.79688556 -206.44519043 113.7272644 C-196.18079872 107.72242358 -185.94103934 101.67737343 -175.71459961 95.6081543 C-169.52315303 91.93395236 -163.32580481 88.27039623 -157.11621094 84.62695312 C-151.66973896 81.43084314 -146.24977648 78.19409597 -140.8425293 74.93188477 C-135.38821094 71.65373875 -129.89385244 68.44516632 -124.3984375 65.23657227 C-112.74676702 58.43334228 -101.15605913 51.54510683 -89.64212036 44.51119995 C-79.91087101 38.56926487 -70.0972853 32.77927893 -60.24694824 27.037323 C-52.69112708 22.6305949 -45.19030201 18.15998622 -37.80200195 13.47705078 C-32.93655188 10.39843106 -28.01101824 7.43027403 -23.05371094 4.50195312 C-22.32893555 4.07148682 -21.60416016 3.64102051 -20.85742188 3.19750977 C-14.18044197 -0.72453737 -7.56753372 -2.99203356 0 0 Z "
    fill="#26858C"
    transform="translate(481.3662109375,160.935546875)"
  />
  <path
    d="M0 0 C11.60682397 -0.43829965 19.9630539 3.63374506 29.60546875 9.76953125 C31.63778378 11.03553688 33.67033595 12.30116189 35.703125 13.56640625 C37.17096436 14.48776367 37.17096436 14.48776367 38.66845703 15.42773438 C42.26501652 17.67342842 45.89782688 19.85393123 49.54296875 22.01953125 C53.06116707 24.11689077 56.56830362 26.22956793 60.04296875 28.3984375 C60.63190918 28.76533691 61.22084961 29.13223633 61.82763672 29.51025391 C63.42513179 30.50840411 65.0193411 31.51180773 66.61328125 32.515625 C69.28584872 34.16672853 69.28584872 34.16672853 71.82958984 35.07226562 C74.37919097 36.12846711 76.38228927 37.34995855 78.63671875 38.9296875 C83.26174339 42.08267975 88.03568426 44.85028247 92.91796875 47.58203125 C101.80391131 52.60871881 110.57869596 57.79998799 119.32177734 63.07055664 C129.51690269 69.21453068 139.75143231 75.29085856 149.99145508 81.35961914 C157.09754257 85.57227518 164.1919791 89.80342544 171.27328491 94.05761719 C175.72631015 96.7320587 180.18823246 99.39010802 184.66796875 102.01953125 C185.37300537 102.43404541 186.07804199 102.84855957 186.80444336 103.27563477 C191.1084214 105.8019548 195.42496005 108.30548414 199.74951172 110.79638672 C217.12677829 120.81046921 234.35458706 131.08741742 251.54296875 141.421875 C253.18567749 142.40945801 253.18567749 142.40945801 254.86157227 143.41699219 C256.95160841 144.67508777 259.04066994 145.93480412 261.12866211 147.19628906 C265.97499717 150.11639799 270.84207476 152.95854174 275.81103516 155.66430664 C282.81331647 159.48936235 288.34057477 163.49248307 291.41796875 171.14453125 C291.67211908 173.93814909 291.67211908 173.93814909 291.67803097 177.23104286 C291.68862935 179.11477228 291.68862935 179.11477228 291.69944185 181.03655684 C291.69719041 182.43278829 291.6947439 183.82901944 291.69212341 185.22525024 C291.69657482 186.70650643 291.70188854 188.18776023 291.70799214 189.66901052 C291.72219473 193.74525186 291.723835 197.82141703 291.72339523 201.89767957 C291.72504148 206.29185904 291.73810454 210.68600695 291.74958801 215.08016968 C291.77245352 224.6918675 291.78036051 234.30354327 291.78541446 243.91526461 C291.78867013 249.91690557 291.79519189 255.91854012 291.80241585 261.92017746 C291.82198497 278.53659929 291.83838696 295.15301514 291.84129238 311.76944923 C291.84147995 312.83313318 291.84166752 313.89681713 291.84186077 314.99273392 C291.84222703 317.14910277 291.84259072 319.30547162 291.84295189 321.46184047 C291.8431347 322.53227003 291.84331751 323.60269959 291.84350586 324.70556641 C291.84377668 326.31317072 291.84377668 326.31317072 291.84405298 327.95325188 C291.84759385 345.3153877 291.87460945 362.67739942 291.91200375 380.0394922 C291.95008776 397.86448939 291.96944987 415.68942501 291.96975189 433.51446378 C291.9703365 443.52269104 291.97883015 453.53077033 292.00774956 463.5389595 C292.03226484 472.06226343 292.03954543 480.58536545 292.02450203 489.1086951 C292.01733334 493.4563316 292.01818857 497.80356941 292.04091263 502.15116119 C292.06153609 506.13510582 292.05887137 510.11834613 292.03803778 514.1022834 C292.03454924 515.53975343 292.03942605 516.97727461 292.05374222 518.41467758 C292.13291672 526.91533472 291.65125369 534.13709936 286.41796875 541.14453125 C282.94538181 544.14453125 282.94538181 544.14453125 280.41796875 544.14453125 C280.41796875 544.80453125 280.41796875 545.46453125 280.41796875 546.14453125 C279.81549316 546.45044189 279.21301758 546.75635254 278.59228516 547.0715332 C265.17838039 553.90832221 252.13364237 561.08015897 239.41796875 569.14453125 C239.41796875 565.0010429 241.40084433 563.13798787 243.8125 559.88671875 C249.46251638 550.23632581 250.02921351 539.02742475 248.41796875 528.14453125 C247.05304522 523.16075677 244.49786219 518.83462821 241.82226562 514.45019531 C240.21232994 511.80690036 238.66595698 509.13105177 237.12109375 506.44921875 C234.72213329 502.29632952 232.30138553 498.1573663 229.86328125 494.02734375 C226.9681386 489.10828925 224.16298349 484.14856001 221.41796875 479.14453125 C216.99404833 471.09678066 212.3759098 463.16899312 207.73486328 455.24487305 C202.3873866 446.11038556 197.12701584 436.92820084 191.89013672 427.72998047 C180.30448827 407.38304562 168.58222308 387.11889791 156.77734375 366.8984375 C156.22626953 365.95371582 155.67519531 365.00899414 155.10742188 364.03564453 C153.95804069 362.06874106 152.80557784 360.10363586 151.65039062 358.14013672 C148.3170291 352.46226214 145.07454642 346.74921052 141.94140625 340.95849609 C132.67742547 323.84685468 123.04499906 306.96177124 113.19482422 290.18212891 C110.10000513 284.89142554 107.04044156 279.58044102 103.98046875 274.26953125 C103.35785156 273.18921631 102.73523438 272.10890137 102.09375 270.99584961 C100.83202839 268.80624777 99.57047274 266.61655029 98.30908203 264.42675781 C95.18116727 258.99793184 92.04939628 253.5713315 88.91796875 248.14453125 C85.12056912 241.56280248 81.32348782 234.98089053 77.52734375 228.3984375 C76.2409031 226.16795855 74.95444491 223.93748972 73.66796875 221.70703125 C73.03818115 220.61503418 72.40839355 219.52303711 71.75952148 218.39794922 C68.60433663 212.92863102 65.44411083 207.46232078 62.27514648 202.00097656 C56.9984417 192.90629776 51.78020241 183.77884337 46.57214355 174.64474487 C41.8387053 166.34586143 37.05958368 158.07575404 32.23046875 149.83203125 C27.17345056 141.19856674 22.21825834 132.51321973 17.31396484 123.79223633 C12.81456346 115.80746962 8.20648798 107.88922386 3.57592773 99.97998047 C-0.15876424 93.59675086 -3.85810534 87.19505331 -7.51953125 80.76953125 C-12.10923336 72.71951798 -16.71088145 64.67654331 -21.33203125 56.64453125 C-21.96874756 55.53529297 -22.60546387 54.42605469 -23.26147461 53.28320312 C-27.14288654 46.5484536 -31.13685272 39.9271108 -35.45703125 33.46484375 C-36.58203125 31.14453125 -36.58203125 31.14453125 -36.36328125 29.08203125 C-36.10546875 28.44265625 -35.84765625 27.80328125 -35.58203125 27.14453125 C-35.36546875 26.48195312 -35.14890625 25.819375 -34.92578125 25.13671875 C-30.38254501 13.73656114 -21.65499911 6.10303059 -10.58203125 1.14453125 C-7.05376119 0.08349352 -3.66168887 0.20496594 0 0 Z "
    fill="#EC1B3E"
    transform="translate(510.58203125,186.85546875)"
  />
  <path
    d="M0 0 C2.81784037 2.5083512 4.45723723 5.29922938 6.30078125 8.57421875 C6.94104248 9.70448486 7.58130371 10.83475098 8.2409668 11.99926758 C8.74700943 12.90027695 8.74700943 12.90027695 9.26327515 13.81948853 C11.05391742 17.00749947 12.86019081 20.18664993 14.6640625 23.3671875 C15.21265175 24.33604637 15.21265175 24.33604637 15.77232361 25.32447815 C19.18929396 31.3526884 22.68060328 37.33620288 26.1875 43.3125 C32.38265708 53.89023817 38.42263853 64.55101902 44.43847656 75.23144531 C51.63900415 87.99785913 58.94343685 100.69675398 66.4609375 113.27954102 C69.58151347 118.52113347 72.55296871 123.82219211 75.45507812 129.1875 C78.14171093 134.07846238 80.98396291 138.8776943 83.8125 143.6875 C87.97096467 150.79344485 92.12807886 157.89937629 96.1875 165.0625 C96.53723877 165.67375732 96.88697754 166.28501465 97.24731445 166.91479492 C101.4350524 174.34914768 103.56316601 180.1413196 103.5 188.625 C103.49500488 189.50510742 103.49000977 190.38521484 103.48486328 191.29199219 C103.192863 202.29939597 99.64627516 211.89410166 92 220 C88.83304896 222.3796226 85.46708269 224.28025314 82 226.1875 C80.01669336 227.3186007 78.03362696 228.45012273 76.05078125 229.58203125 C75.04225098 230.15002441 74.0337207 230.71801758 72.99462891 231.30322266 C68.35541258 233.93183455 63.7726585 236.65355392 59.1875 239.375 C57.83543457 240.17321167 57.83543457 240.17321167 56.45605469 240.98754883 C50.57995846 244.45804701 44.7267816 247.96512824 38.88183594 251.48779297 C29.45279316 257.16962184 19.98613427 262.77131151 10.4375 268.25 C-12.73867903 281.54934362 -35.65543882 295.30766004 -58.5234375 309.12890625 C-70.84922697 316.56104704 -83.2875671 323.80258483 -95.70898438 331.07324219 C-106.92894266 337.6420783 -118.12531931 344.25051366 -129.3125 350.875 C-130.17862915 351.38778 -130.17862915 351.38778 -131.06225586 351.91091919 C-137.10091883 355.48708418 -143.13316095 359.07339081 -149.14453125 362.6953125 C-150.54094849 363.53666748 -150.54094849 363.53666748 -151.96557617 364.39501953 C-153.70268449 365.44337628 -155.43858048 366.49374521 -157.1730957 367.54638672 C-157.93323975 368.0054541 -158.69338379 368.46452148 -159.4765625 368.9375 C-160.13736816 369.33839844 -160.79817383 369.73929688 -161.47900391 370.15234375 C-163 371 -163 371 -164 371 C-163.94199219 370.24976563 -163.88398438 369.49953125 -163.82421875 368.7265625 C-163.46916229 360.67185315 -164.83561035 355.80920987 -169 349 C-169.72125831 347.78717485 -170.44122017 346.57357815 -171.16015625 345.359375 C-173.9838873 340.61767161 -176.81140679 335.87908416 -179.76171875 331.21484375 C-180.23222656 330.44269531 -180.70273437 329.67054688 -181.1875 328.875 C-181.59355469 328.23304688 -181.99960937 327.59109375 -182.41796875 326.9296875 C-183.56441953 323.12870302 -181.0288365 320.05379364 -179.2578125 316.75 C-178.55010773 315.49816691 -177.83893629 314.24828967 -177.125 313 C-176.73280273 312.30777344 -176.34060547 311.61554688 -175.93652344 310.90234375 C-173.70402979 306.96815913 -171.45211371 303.04527959 -169.1953125 299.125 C-163.29176356 288.85890567 -157.54466767 278.52599557 -151.93334961 268.09716797 C-147.09505329 259.12506245 -142.09003217 250.25319771 -137.0546875 241.390625 C-134.31666873 236.56966486 -131.61923637 231.72743405 -128.9375 226.875 C-125.42802324 220.53157291 -121.85626679 214.22637688 -118.25 207.9375 C-113.20334828 199.13645267 -108.23125283 190.29546841 -103.28222656 181.43920898 C-98.84530926 173.50161023 -94.37755603 165.58195852 -89.89697266 157.66894531 C-85.88788757 150.58351593 -81.90890274 143.48160608 -77.9375 136.375 C-73.16055505 127.83024054 -68.33929832 119.31269464 -63.47290039 110.81860352 C-55.91181619 97.61780751 -48.40860633 84.38422694 -41.0625 71.0625 C-37.17431638 64.01671757 -33.13528847 57.06547038 -29.0625 50.125 C-23.71132385 41.00536957 -18.54209419 31.80407622 -13.4765625 22.5234375 C-11.1861334 18.32876665 -8.86127781 14.15518536 -6.5 10 C-5.8915625 8.9275 -5.283125 7.855 -4.65625 6.75 C-3.22291945 4.37013041 -1.71825831 2.17925444 0 0 Z "
    fill="#0D5C6E"
    transform="translate(657,536)"
  />
  <path
    d="M0 0 C0.64845409 2.40854375 1.09715183 4.70782047 1.4375 7.1875 C1.623125 8.115625 1.80875 9.04375 2 10 C2.66 10.33 3.32 10.66 4 11 C-1.94 14.465 -1.94 14.465 -8 18 C-8 14.42042166 -7.18207543 13.53689395 -5.125 10.6875 C-2.71980819 7.21585522 -1.06007695 4.13430012 0 0 Z "
    fill="#C0263F"
    transform="translate(758,738)"
  />
  <path
    d="M0 0 C3.59391114 1.33488128 6.75490696 2.96022723 10 5 C8 6 8 6 6.359375 5.56640625 C3.00196467 4.76040543 -0.32004359 4.89535498 -3.75 4.9375 C-4.44738281 4.94201172 -5.14476562 4.94652344 -5.86328125 4.95117188 C-7.57555803 4.9628998 -9.28779033 4.98083347 -11 5 C-8.68796073 2.68796073 -8.06785625 2.72724909 -4.9375 2.5 C-2.9884375 2.2525 -2.9884375 2.2525 -1 2 C-0.67 1.34 -0.34 0.68 0 0 Z "
    fill="#446D76"
    transform="translate(515,183)"
  />
  <path
    d="M0 0 C0.66 0.33 1.32 0.66 2 1 C-0.41337795 5.82675589 -3.86062408 8.69984002 -8 12 C-8 8.24111186 -7.049166 7.58681685 -4.5625 4.875 C-3.92441406 4.17117187 -3.28632813 3.46734375 -2.62890625 2.7421875 C-1.76410115 1.81724008 -0.89538137 0.89538137 0 0 Z "
    fill="#B9344E"
    transform="translate(488,195)"
  />
  <path
    d="M0 0 C1.1725131 0.95117134 2.33787015 1.91117009 3.5 2.875 C4.47453125 3.67550781 4.47453125 3.67550781 5.46875 4.4921875 C6.22671875 5.23855469 6.22671875 5.23855469 7 6 C7 6.66 7 7.32 7 8 C3.22454612 6.90931332 0.52956528 6.0916909 -2 3 C-1.34 3 -0.68 3 0 3 C0 2.01 0 1.02 0 0 Z "
    fill="#286A76"
    transform="translate(193,749)"
  />
  <path
    d="M0 0 C1.36363636 4.09090909 1.36363636 4.09090909 0 7 C-3.0625 8.75 -3.0625 8.75 -6 10 C-4.34832443 6.4213696 -2.21713508 3.25179812 0 0 Z "
    fill="#A5293C"
    transform="translate(755,746)"
  />
  <path
    d="M0 0 C0.33 0 0.66 0 1 0 C1 1.65 1 3.3 1 5 C0.34 5 -0.32 5 -1 5 C-1.33 7.31 -1.66 9.62 -2 12 C-2.66 11.67 -3.32 11.34 -4 11 C-3.21681311 7.08406554 -1.60820142 3.63593365 0 0 Z "
    fill="#BF3756"
    transform="translate(478,207)"
  />
  <path
    d="M0 0 C1.953125 0.8359375 1.953125 0.8359375 4 2 C4.75 4.625 4.75 4.625 5 7 C5.66 7 6.32 7 7 7 C7 8.65 7 10.3 7 12 C3.95950199 8.35140239 2.03481238 4.2555467 0 0 Z "
    fill="#C61C36"
    transform="translate(651,524)"
  />
  <path
    d="M0 0 C3.96 1.98 3.96 1.98 8 4 C8 4.33 8 4.66 8 5 C6.02 5 4.04 5 2 5 C1.34 3.35 0.68 1.7 0 0 Z "
    fill="#D81A35"
    transform="translate(755,325)"
  />
  <path
    d="M0 0 C0.99 0.33 1.98 0.66 3 1 C1.02579865 3.52259061 0.03254358 3.9929808 -3.1875 4.6875 C-4.5796875 4.8421875 -4.5796875 4.8421875 -6 5 C-4.06745228 2.9754262 -2.36841312 1.57894208 0 0 Z "
    fill="#20737E"
    transform="translate(173,335)"
  />
</svg>
